<svg width="312" height="63" viewBox="0 0 312 63" fill="none" xmlns="http://www.w3.org/2000/svg">
<path d="M54.73 50.4139V59.523H53.7762V51.263H48.9283V59.523H47.9745V50.4139H54.73Z" fill="white"/>
<path d="M63.3297 56.5123C63.3297 56.9669 63.2459 57.3872 63.0781 57.7732C62.9191 58.1592 62.6939 58.4937 62.4025 58.7767C62.1111 59.0598 61.7623 59.2828 61.3561 59.4458C60.9499 59.6002 60.504 59.6774 60.0183 59.6774C59.5414 59.6774 59.0999 59.6002 58.6937 59.4458C58.2875 59.2828 57.9387 59.0598 57.6473 58.7767C57.3558 58.4937 57.1263 58.1592 56.9585 57.7732C56.7995 57.3872 56.72 56.9669 56.72 56.5123C56.72 56.0577 56.7995 55.6374 56.9585 55.2515C57.1263 54.8655 57.3558 54.531 57.6473 54.2479C57.9387 53.9649 58.2875 53.7462 58.6937 53.5918C59.0999 53.4288 59.5414 53.3473 60.0183 53.3473C60.504 53.3473 60.9499 53.4288 61.3561 53.5918C61.7623 53.7462 62.1111 53.9649 62.4025 54.2479C62.6939 54.531 62.9191 54.8655 63.0781 55.2515C63.2459 55.6374 63.3297 56.0577 63.3297 56.5123ZM62.376 56.5123C62.376 56.1778 62.3186 55.8647 62.2038 55.5731C62.0979 55.2729 61.9433 55.0156 61.7402 54.8012C61.5371 54.5782 61.2899 54.4023 60.9985 54.2737C60.7071 54.145 60.3803 54.0807 60.0183 54.0807C59.6562 54.0807 59.3295 54.145 59.0381 54.2737C58.7555 54.4023 58.5127 54.5782 58.3095 54.8012C58.1064 55.0156 57.9475 55.2729 57.8327 55.5731C57.7267 55.8647 57.6737 56.1778 57.6737 56.5123C57.6737 56.8468 57.7267 57.1642 57.8327 57.4644C57.9475 57.756 58.1064 58.0134 58.3095 58.2364C58.5127 58.4508 58.7555 58.6223 59.0381 58.751C59.3295 58.8711 59.6562 58.9311 60.0183 58.9311C60.3803 58.9311 60.7071 58.8711 60.9985 58.751C61.2899 58.6223 61.5371 58.4508 61.7402 58.2364C61.9433 58.0134 62.0979 57.756 62.2038 57.4644C62.3186 57.1642 62.376 56.8468 62.376 56.5123Z" fill="white"/>
<path d="M66.1687 62.6108H65.268V53.5017H66.1687V54.5438H66.2084C66.4645 54.1493 66.8045 53.8534 67.2284 53.6561C67.6611 53.4502 68.0982 53.3473 68.5397 53.3473C69.0254 53.3473 69.4625 53.4288 69.8511 53.5918C70.2484 53.7547 70.584 53.9777 70.8578 54.2608C71.1403 54.5438 71.3567 54.8784 71.5068 55.2643C71.6658 55.6503 71.7452 56.0663 71.7452 56.5123C71.7452 56.9584 71.6658 57.3744 71.5068 57.7603C71.3567 58.1463 71.1403 58.4808 70.8578 58.7639C70.584 59.0469 70.2484 59.2699 69.8511 59.4329C69.4625 59.5959 69.0254 59.6774 68.5397 59.6774C68.0982 59.6774 67.6611 59.5787 67.2284 59.3814C66.8045 59.1756 66.4645 58.884 66.2084 58.5066H66.1687V62.6108ZM70.7915 56.5123C70.7915 56.1778 70.7385 55.8647 70.6326 55.5731C70.5266 55.2729 70.3721 55.0156 70.169 54.8012C69.9747 54.5782 69.7319 54.4023 69.4404 54.2737C69.149 54.145 68.8179 54.0807 68.447 54.0807C68.1026 54.0807 67.7847 54.145 67.4933 54.2737C67.2019 54.3937 66.9502 54.5653 66.7383 54.7883C66.5263 55.0027 66.3586 55.26 66.2349 55.5603C66.1201 55.8519 66.0627 56.1692 66.0627 56.5123C66.0627 56.8554 66.1201 57.1771 66.2349 57.4773C66.3586 57.7689 66.5263 58.0219 66.7383 58.2364C66.9502 58.4508 67.2019 58.6223 67.4933 58.751C67.7847 58.8711 68.1026 58.9311 68.447 58.9311C68.8179 58.9311 69.149 58.8711 69.4404 58.751C69.7319 58.6223 69.9747 58.4508 70.169 58.2364C70.3721 58.0134 70.5266 57.756 70.6326 57.4644C70.7385 57.1642 70.7915 56.8468 70.7915 56.5123Z" fill="white"/>
<path d="M72.6164 53.5017H78.0604V54.2351H75.7159V59.523H74.8152V54.2351H72.6164V53.5017Z" fill="white"/>
<path d="M83.2881 55.6374C83.2881 55.1142 83.1468 54.724 82.8642 54.4666C82.5816 54.2093 82.171 54.0807 81.6324 54.0807C81.2615 54.0807 80.9171 54.145 80.5992 54.2737C80.2813 54.4023 80.0119 54.5739 79.7912 54.7883L79.2878 54.2093C79.5439 53.9606 79.8795 53.7547 80.2945 53.5918C80.7184 53.4288 81.1952 53.3473 81.7251 53.3473C82.0606 53.3473 82.3741 53.3945 82.6655 53.4888C82.9569 53.5746 83.213 53.7076 83.4338 53.8877C83.6546 54.0678 83.8268 54.2951 83.9504 54.5696C84.074 54.844 84.1358 55.1657 84.1358 55.5345V58.172C84.1358 58.4036 84.1447 58.6438 84.1623 58.8925C84.18 59.1413 84.2065 59.3514 84.2418 59.523H83.4338C83.4073 59.3771 83.3852 59.2185 83.3676 59.0469C83.3499 58.8754 83.3411 58.7081 83.3411 58.5452H83.3146C83.032 58.9483 82.7097 59.2399 82.3476 59.42C81.9944 59.5916 81.5661 59.6774 81.0628 59.6774C80.8244 59.6774 80.5771 59.643 80.321 59.5744C80.0738 59.5144 79.8442 59.4115 79.6322 59.2656C79.4291 59.1198 79.2569 58.9311 79.1156 58.6995C78.9832 58.468 78.9169 58.1849 78.9169 57.8504C78.9169 57.3872 79.0362 57.0227 79.2746 56.7568C79.5218 56.4823 79.8486 56.2807 80.2548 56.1521C80.661 56.0149 81.1246 55.9291 81.6456 55.8948C82.1754 55.8519 82.7229 55.8304 83.2881 55.8304V55.6374ZM83.0232 56.5123C82.6523 56.5123 82.277 56.5295 81.8973 56.5638C81.5264 56.5895 81.1864 56.6496 80.8773 56.7439C80.5771 56.8297 80.3298 56.9584 80.1356 57.1299C79.9413 57.3014 79.8442 57.5287 79.8442 57.8118C79.8442 58.0262 79.8839 58.2063 79.9634 58.3522C80.0517 58.498 80.1665 58.6181 80.3078 58.7124C80.4491 58.7982 80.6036 58.8625 80.7714 58.9054C80.948 58.9397 81.1246 58.9569 81.3012 58.9569C81.6191 58.9569 81.9017 58.9054 82.1489 58.8025C82.3962 58.691 82.6037 58.5452 82.7715 58.365C82.9393 58.1763 83.0673 57.9619 83.1556 57.7217C83.2439 57.4816 83.2881 57.2285 83.2881 56.9626V56.5123H83.0232Z" fill="white"/>
<path d="M90.6684 59.523L88.6153 54.5567L86.4695 59.523H85.529L88.2444 53.5017H89.0392L91.5824 59.523H90.6684Z" fill="white"/>
<path d="M96.0472 61.3113H95.1597V58.7639H96.1532L98.4314 53.5017H99.2262L101.332 58.7639H102.365V61.3113H101.491V59.523H96.0472V61.3113ZM97.0671 58.7639H100.432L98.8023 54.5567L97.0671 58.7639Z" fill="white"/>
<path d="M107.769 59.523L105.716 54.5567L103.57 59.523H102.63L105.345 53.5017H106.14L108.683 59.523H107.769Z" fill="white"/>
<path d="M112.976 56.9369C112.287 56.9369 111.761 57.1685 111.399 57.6317C111.037 58.0863 110.821 58.7167 110.75 59.523H109.744C109.77 59.1884 109.828 58.8668 109.916 58.558C110.004 58.2492 110.123 57.9705 110.273 57.7217C110.432 57.4644 110.618 57.2457 110.83 57.0656C111.051 56.8769 111.302 56.7353 111.585 56.641V56.6024C111.134 56.5595 110.764 56.4308 110.472 56.2164C110.181 55.9934 110.035 55.6632 110.035 55.2257C110.035 54.6768 110.251 54.2522 110.684 53.952C111.126 53.6518 111.766 53.5017 112.605 53.5017H114.949V59.523H114.049V56.9369H112.976ZM110.989 55.2257C110.989 55.4316 111.037 55.5989 111.134 55.7275C111.232 55.8562 111.36 55.9548 111.519 56.0234C111.686 56.0835 111.876 56.1264 112.088 56.1521C112.3 56.1692 112.516 56.1778 112.737 56.1778H114.049V54.2608H112.724C112.486 54.2608 112.26 54.2694 112.048 54.2865C111.837 54.3037 111.651 54.3466 111.492 54.4152C111.342 54.4752 111.218 54.5696 111.121 54.6982C111.033 54.8269 110.989 55.0027 110.989 55.2257Z" fill="white"/>
<path d="M122.725 58.5837H122.752L124.673 53.5017H125.653L122.566 61.0797C122.381 61.5429 122.143 61.9117 121.851 62.1862C121.569 62.4693 121.158 62.6108 120.619 62.6108C120.346 62.6108 120.076 62.5851 119.811 62.5336L119.904 61.7359C120.116 61.8045 120.337 61.8388 120.566 61.8388C120.875 61.8388 121.118 61.7445 121.295 61.5558C121.472 61.3757 121.626 61.114 121.758 60.771L122.262 59.5101L119.613 53.5017H120.619L122.725 58.5837Z" fill="white"/>
<path d="M127.908 55.972C128.262 55.972 128.593 55.9977 128.902 56.0492L131.127 53.5017H132.134L129.723 56.2293C130.456 56.4523 131.026 56.834 131.432 57.3744C131.838 57.9061 132.16 58.6223 132.399 59.523H131.392C131.268 58.9912 131.109 58.5494 130.915 58.1978C130.73 57.8375 130.491 57.5502 130.2 57.3358C129.917 57.1127 129.586 56.9584 129.206 56.8726C128.827 56.7782 128.394 56.7268 127.908 56.7182V59.523H127.008V53.5017H127.908V55.972Z" fill="white"/>
<path d="M135.153 62.6108H134.253V53.5017H135.153V54.5438H135.193C135.449 54.1493 135.789 53.8534 136.213 53.6561C136.646 53.4502 137.083 53.3473 137.524 53.3473C138.01 53.3473 138.447 53.4288 138.836 53.5918C139.233 53.7547 139.569 53.9777 139.842 54.2608C140.125 54.5438 140.341 54.8784 140.492 55.2643C140.65 55.6503 140.73 56.0663 140.73 56.5123C140.73 56.9584 140.65 57.3744 140.492 57.7603C140.341 58.1463 140.125 58.4808 139.842 58.7639C139.569 59.0469 139.233 59.2699 138.836 59.4329C138.447 59.5959 138.01 59.6774 137.524 59.6774C137.083 59.6774 136.646 59.5787 136.213 59.3814C135.789 59.1756 135.449 58.884 135.193 58.5066H135.153V62.6108ZM139.776 56.5123C139.776 56.1778 139.723 55.8647 139.617 55.5731C139.511 55.2729 139.357 55.0156 139.154 54.8012C138.959 54.5782 138.717 54.4023 138.425 54.2737C138.134 54.145 137.803 54.0807 137.432 54.0807C137.087 54.0807 136.769 54.145 136.478 54.2737C136.187 54.3937 135.935 54.5653 135.723 54.7883C135.511 55.0027 135.343 55.26 135.22 55.5603C135.105 55.8519 135.047 56.1692 135.047 56.5123C135.047 56.8554 135.105 57.1771 135.22 57.4773C135.343 57.7689 135.511 58.0219 135.723 58.2364C135.935 58.4508 136.187 58.6223 136.478 58.751C136.769 58.8711 137.087 58.9311 137.432 58.9311C137.803 58.9311 138.134 58.8711 138.425 58.751C138.717 58.6223 138.959 58.4508 139.154 58.2364C139.357 58.0134 139.511 57.756 139.617 57.4644C139.723 57.1642 139.776 56.8468 139.776 56.5123Z" fill="white"/>
<path d="M146.568 55.6374C146.568 55.1142 146.427 54.724 146.144 54.4666C145.862 54.2093 145.451 54.0807 144.913 54.0807C144.542 54.0807 144.197 54.145 143.879 54.2737C143.561 54.4023 143.292 54.5739 143.071 54.7883L142.568 54.2093C142.824 53.9606 143.16 53.7547 143.575 53.5918C143.999 53.4288 144.475 53.3473 145.005 53.3473C145.341 53.3473 145.654 53.3945 145.946 53.4888C146.237 53.5746 146.493 53.7076 146.714 53.8877C146.935 54.0678 147.107 54.2951 147.231 54.5696C147.354 54.844 147.416 55.1657 147.416 55.5345V58.172C147.416 58.4036 147.425 58.6438 147.442 58.8925C147.46 59.1413 147.487 59.3514 147.522 59.523H146.714C146.687 59.3771 146.665 59.2185 146.648 59.0469C146.63 58.8754 146.621 58.7081 146.621 58.5452H146.595C146.312 58.9483 145.99 59.2399 145.628 59.42C145.275 59.5916 144.846 59.6774 144.343 59.6774C144.105 59.6774 143.857 59.643 143.601 59.5744C143.354 59.5144 143.124 59.4115 142.912 59.2656C142.709 59.1198 142.537 58.9311 142.396 58.6995C142.263 58.468 142.197 58.1849 142.197 57.8504C142.197 57.3872 142.316 57.0227 142.555 56.7568C142.802 56.4823 143.129 56.2807 143.535 56.1521C143.941 56.0149 144.405 55.9291 144.926 55.8948C145.456 55.8519 146.003 55.8304 146.568 55.8304V55.6374ZM146.303 56.5123C145.932 56.5123 145.557 56.5295 145.177 56.5638C144.807 56.5895 144.467 56.6496 144.158 56.7439C143.857 56.8297 143.61 56.9584 143.416 57.1299C143.221 57.3014 143.124 57.5287 143.124 57.8118C143.124 58.0262 143.164 58.2063 143.244 58.3522C143.332 58.498 143.447 58.6181 143.588 58.7124C143.729 58.7982 143.884 58.8625 144.052 58.9054C144.228 58.9397 144.405 58.9569 144.581 58.9569C144.899 58.9569 145.182 58.9054 145.429 58.8025C145.676 58.691 145.884 58.5452 146.052 58.365C146.219 58.1763 146.348 57.9619 146.436 57.7217C146.524 57.4816 146.568 57.2285 146.568 56.9626V56.5123H146.303Z" fill="white"/>
<path d="M150.65 59.523H149.75V53.5017H150.65V59.523ZM148.266 51.1987C148.266 51.0272 148.328 50.8771 148.452 50.7484C148.575 50.6112 148.739 50.5425 148.942 50.5425C149.145 50.5425 149.308 50.6112 149.432 50.7484C149.555 50.8771 149.617 51.0272 149.617 51.1987C149.617 51.3702 149.555 51.5246 149.432 51.6619C149.308 51.7905 149.145 51.8549 148.942 51.8549C148.739 51.8549 148.575 51.7905 148.452 51.6619C148.328 51.5246 148.266 51.3702 148.266 51.1987ZM150.809 51.1987C150.809 51.0272 150.871 50.8771 150.995 50.7484C151.118 50.6112 151.282 50.5425 151.485 50.5425C151.688 50.5425 151.851 50.6112 151.975 50.7484C152.099 50.8771 152.16 51.0272 152.16 51.1987C152.16 51.3702 152.099 51.5246 151.975 51.6619C151.851 51.7905 151.688 51.8549 151.485 51.8549C151.282 51.8549 151.118 51.7905 150.995 51.6619C150.871 51.5246 150.809 51.3702 150.809 51.1987Z" fill="white"/>
<path d="M153.896 59.523H152.995V53.5017H153.896V55.9334H157.432V53.5017H158.333V59.523H157.432V56.6667H153.896V59.523Z" fill="white"/>
<path d="M160.614 59.523V53.5017H161.515V58.7381H164.839V53.5017H165.74V58.7381H166.773V61.3113H165.872V59.523H160.614Z" fill="white"/>
<path d="M169.148 59.523H168.247V53.5017H169.148V59.523ZM169.333 51.1858C169.333 51.366 169.267 51.5161 169.135 51.6361C169.002 51.7476 168.857 51.8034 168.698 51.8034C168.539 51.8034 168.393 51.7476 168.261 51.6361C168.128 51.5161 168.062 51.366 168.062 51.1858C168.062 51.0057 168.128 50.8599 168.261 50.7484C168.393 50.6283 168.539 50.5683 168.698 50.5683C168.857 50.5683 169.002 50.6283 169.135 50.7484C169.267 50.8599 169.333 51.0057 169.333 51.1858Z" fill="white"/>
<path d="M174.327 59.523H171.493V53.5017H174.168C174.954 53.5017 175.537 53.6518 175.917 53.952C176.296 54.2436 176.486 54.6339 176.486 55.1228C176.486 55.3458 176.451 55.5345 176.38 55.6889C176.31 55.8347 176.208 55.9591 176.076 56.062C175.952 56.1564 175.806 56.2336 175.639 56.2936C175.471 56.3537 175.294 56.4094 175.109 56.4609C175.338 56.478 175.555 56.5166 175.758 56.5767C175.961 56.6367 176.137 56.7268 176.288 56.8468C176.447 56.9584 176.57 57.1042 176.658 57.2843C176.747 57.4558 176.791 57.666 176.791 57.9147C176.791 58.4036 176.583 58.7939 176.168 59.0855C175.753 59.3771 175.14 59.523 174.327 59.523ZM172.393 58.8153H173.546C173.872 58.8153 174.173 58.811 174.446 58.8025C174.72 58.7853 174.959 58.7467 175.162 58.6867C175.365 58.6181 175.524 58.5151 175.639 58.3779C175.753 58.2407 175.811 58.0477 175.811 57.7989C175.811 57.3872 175.652 57.117 175.334 56.9884C175.025 56.8597 174.605 56.7954 174.076 56.7954H172.393V58.8153ZM174.115 56.165C174.557 56.165 174.901 56.1006 175.148 55.972C175.405 55.8347 175.533 55.5688 175.533 55.1743C175.533 54.9513 175.484 54.7754 175.387 54.6468C175.29 54.5181 175.153 54.4238 174.976 54.3637C174.8 54.2951 174.588 54.2522 174.34 54.2351C174.093 54.2179 173.819 54.2093 173.519 54.2093H172.393V56.165H174.115Z" fill="white"/>
<path d="M199.309 50.4139V59.523H198.356V51.263H193.508V59.523H192.554V50.4139H199.309Z" fill="white"/>
<path d="M207.909 56.5123C207.909 56.9669 207.825 57.3872 207.657 57.7732C207.499 58.1592 207.273 58.4937 206.982 58.7767C206.691 59.0598 206.342 59.2828 205.936 59.4458C205.529 59.6002 205.083 59.6774 204.598 59.6774C204.121 59.6774 203.679 59.6002 203.273 59.4458C202.867 59.2828 202.518 59.0598 202.227 58.7767C201.935 58.4937 201.706 58.1592 201.538 57.7732C201.379 57.3872 201.299 56.9669 201.299 56.5123C201.299 56.0577 201.379 55.6374 201.538 55.2515C201.706 54.8655 201.935 54.531 202.227 54.2479C202.518 53.9649 202.867 53.7462 203.273 53.5918C203.679 53.4288 204.121 53.3473 204.598 53.3473C205.083 53.3473 205.529 53.4288 205.936 53.5918C206.342 53.7462 206.691 53.9649 206.982 54.2479C207.273 54.531 207.499 54.8655 207.657 55.2515C207.825 55.6374 207.909 56.0577 207.909 56.5123ZM206.955 56.5123C206.955 56.1778 206.898 55.8647 206.783 55.5731C206.677 55.2729 206.523 55.0156 206.32 54.8012C206.117 54.5782 205.869 54.4023 205.578 54.2737C205.286 54.145 204.96 54.0807 204.598 54.0807C204.236 54.0807 203.909 54.145 203.617 54.2737C203.335 54.4023 203.092 54.5782 202.889 54.8012C202.686 55.0156 202.527 55.2729 202.412 55.5731C202.306 55.8647 202.253 56.1778 202.253 56.5123C202.253 56.8468 202.306 57.1642 202.412 57.4644C202.527 57.756 202.686 58.0134 202.889 58.2364C203.092 58.4508 203.335 58.6223 203.617 58.751C203.909 58.8711 204.236 58.9311 204.598 58.9311C204.96 58.9311 205.286 58.8711 205.578 58.751C205.869 58.6223 206.117 58.4508 206.32 58.2364C206.523 58.0134 206.677 57.756 206.783 57.4644C206.898 57.1642 206.955 56.8468 206.955 56.5123Z" fill="white"/>
<path d="M214.06 59.523L212.006 54.5567L209.861 59.523H208.92L211.636 53.5017H212.43L214.974 59.523H214.06Z" fill="white"/>
<path d="M217.279 53.5017V55.586H218.816C219.275 55.586 219.664 55.6374 219.981 55.7404C220.308 55.8347 220.569 55.972 220.763 56.1521C220.966 56.3236 221.112 56.5295 221.2 56.7697C221.288 57.0098 221.333 57.2671 221.333 57.5416C221.333 57.8161 221.28 58.0734 221.174 58.3136C221.068 58.5537 220.909 58.7639 220.697 58.944C220.494 59.1241 220.238 59.2656 219.928 59.3686C219.628 59.4715 219.275 59.523 218.869 59.523H216.379V53.5017H217.279ZM217.279 58.8153H218.657C218.904 58.8153 219.134 58.7982 219.346 58.7639C219.558 58.721 219.739 58.6524 219.889 58.558C220.048 58.4551 220.167 58.3221 220.246 58.1592C220.335 57.9962 220.379 57.7903 220.379 57.5416C220.379 57.2929 220.335 57.087 220.246 56.924C220.158 56.7611 220.034 56.6324 219.875 56.5381C219.717 56.4437 219.527 56.3794 219.306 56.3451C219.094 56.3022 218.864 56.2807 218.617 56.2807H217.279V58.8153Z" fill="white"/>
<path d="M223.131 59.523V53.5017H224.032V58.7896H226.813V53.5017H227.714V58.7896H230.509V53.5017H231.41V58.7896H232.443V61.3113H231.542V59.523H223.131Z" fill="white"/>
<path d="M234.808 59.523H233.908V53.5017H234.808V59.523ZM234.994 51.1858C234.994 51.366 234.928 51.5161 234.795 51.6361C234.663 51.7476 234.517 51.8034 234.358 51.8034C234.199 51.8034 234.053 51.7476 233.921 51.6361C233.788 51.5161 233.722 51.366 233.722 51.1858C233.722 51.0057 233.788 50.8599 233.921 50.7484C234.053 50.6283 234.199 50.5683 234.358 50.5683C234.517 50.5683 234.663 50.6283 234.795 50.7484C234.928 50.8599 234.994 51.0057 234.994 51.1858Z" fill="white"/>
<path d="M184.613 58.5837H184.639L186.56 53.5017H187.54L184.454 61.0797C184.268 61.5429 184.03 61.9117 183.739 62.1862C183.456 62.4693 183.045 62.6108 182.507 62.6108C182.233 62.6108 181.964 62.5851 181.699 62.5336L181.791 61.7359C182.003 61.8045 182.224 61.8388 182.454 61.8388C182.763 61.8388 183.006 61.7445 183.182 61.5558C183.359 61.3757 183.513 61.1141 183.646 60.771L184.149 59.5101L181.5 53.5017H182.507L184.613 58.5837Z" fill="white"/>
<path d="M52.9696 41.6147H47.9745V9.93851H52.9696V29.2733H69.5442V9.93851H74.5392V41.6147H69.5442V33.3871H52.9696V41.6147Z" fill="white"/>
<path d="M84.7922 41.6147H79.4793L93.3747 9.75751H98.1881L112.083 41.6147H106.725L103.274 33.7409H88.198L84.7922 41.6147ZM95.736 16.0475L89.9235 29.3515H101.548L95.736 16.0475Z" fill="white"/>
<path d="M155.709 41.6147H117.02V9.93851H122.015V37.0442H133.867V9.93851H138.862V37.0442H150.714V9.93851H155.709V41.6147Z" fill="white"/>
<path d="M191.044 41.6147H175.423V9.93851H189.864C192.74 9.93851 195.01 10.6324 196.675 12.0201C198.37 13.4078 199.218 15.3084 199.218 17.7218C199.218 19.2905 198.824 20.6481 198.037 21.7944C197.25 22.9408 196.236 23.7554 194.995 24.238C196.993 24.6 198.612 25.5352 199.854 27.0436C201.125 28.552 201.761 30.4375 201.761 32.7001C201.761 35.385 200.792 37.542 198.855 39.1711C196.947 40.8001 194.344 41.6147 191.044 41.6147ZM180.418 27.0889V37.0442H190.136C192.073 37.0442 193.587 36.6068 194.677 35.7319C195.797 34.8269 196.357 33.575 196.357 31.9761C196.357 30.4073 195.812 29.2006 194.722 28.3559C193.633 27.5112 192.104 27.0889 190.136 27.0889H180.418ZM180.418 14.5089V22.6995H189.001C190.666 22.6995 191.952 22.3525 192.861 21.6587C193.799 20.9347 194.268 19.909 194.268 18.5816C194.268 17.2542 193.799 16.2436 192.861 15.5497C191.952 14.8559 190.666 14.5089 189.001 14.5089H180.418Z" fill="white"/>
<path d="M212.419 41.6147H208.15V9.93851H213.145V33.1979L230.628 9.93851H234.987V41.6147H229.992V18.2648L212.419 41.6147Z" fill="white"/>
<path d="M256.314 41.6147H242.873V9.93851H265.305V14.5089H247.868V21.2062H256.314C259.916 21.2062 262.762 22.1565 264.851 24.057C266.94 25.9274 267.984 28.3861 267.984 31.433C267.984 34.5102 266.94 36.9688 264.851 38.8091C262.792 40.6795 259.947 41.6147 256.314 41.6147ZM247.868 25.7766V37.0442H255.86C258.1 37.0442 259.826 36.5616 261.037 35.5962C262.278 34.6007 262.898 33.2129 262.898 31.433C262.898 29.6531 262.278 28.2654 261.037 27.2699C259.795 26.2744 258.07 25.7766 255.86 25.7766H247.868Z" fill="white"/>
<path d="M279.536 41.6147H274.541V9.93851H279.536V41.6147Z" fill="white"/>
<path d="M292.701 41.6147H287.706V9.93851H301.374C304.704 9.93851 307.293 10.7983 309.139 12.5179C311.046 14.1771 312 16.3793 312 19.1246C312 21.8699 311.046 24.1324 309.139 25.9123C307.293 27.6621 304.704 28.5369 301.374 28.5369H292.701V41.6147ZM292.701 14.5089V23.9665H300.965C302.842 23.9665 304.311 23.5593 305.37 22.7447C306.43 21.9 306.96 20.7235 306.96 19.2151C306.96 17.7067 306.43 16.5453 305.37 15.7307C304.341 14.9162 302.873 14.5089 300.965 14.5089H292.701Z" fill="white"/>
<path d="M25.3382 11.6957C23.4082 -8.4811 -2.1996 1.31729 4.05099 12.2669C10.3016 23.2165 25.9922 32.4526 25.3382 11.6957Z" fill="#005DB8"/>
<path d="M31.0175 31.2975C44.4482 32.8363 43.9198 9.55917 35.4562 13.1402C26.9927 16.7213 17.5012 28.5843 31.0175 31.2975Z" fill="white"/>
<path d="M11.9365 23.9162C0.0848857 17.1672 -4.05983 37.2549 4.6498 37.1759C13.3594 37.0969 23.5441 31.2509 11.9365 23.9162Z" fill="#FFCA1E"/>
<path d="M20.3087 36.5355C21.1032 46.1783 34.2971 40.4507 30.8273 35.5378C27.3574 30.625 19.9789 27.1076 20.3087 36.5355Z" fill="#E4143E"/>
</svg>
