<svg xmlns="http://www.w3.org/2000/svg" xml:space="preserve" width="40px" height="40px" version="1.1"
     viewBox="0 0 211.02 211.02">
  <path fill="#005DB8"
        d="M70.23 90.21c0,-18.78 15.23,-34.01 34.01,-34.01 18.78,0 34.01,15.23 34.01,34.01 0,18.78 -15.23,34.01 -34.01,34.01 -18.78,0 -34.01,-15.23 -34.01,-34.01zm-52.08 -11.75c3.6,-43.62 40.06,-77.2 83.83,-77.2l4.52 0c43.77,0 80.23,33.58 83.83,77.2 1.93,23.49 -5.32,46.81 -20.24,65.06l-50.16 61.34c-8.11,9.91 -23.27,9.91 -31.38,0l-50.16 -61.34c-14.92,-18.25 -22.17,-41.57 -20.24,-65.06zm86.09 -37.95c-27.45,0 -49.71,22.25 -49.71,49.7 0,27.45 22.26,49.7 49.71,49.7 27.45,0 49.71,-22.25 49.71,-49.7 0,-27.45 -22.26,-49.7 -49.71,-49.7z"/>
</svg>
