<svg width="51" height="51" viewBox="0 0 51 51" fill="none" xmlns="http://www.w3.org/2000/svg">
<path d="M30.8591 14.2447C28.5084 -10.3295 -2.68058 1.60439 4.93232 14.9405C12.5452 28.2765 31.6555 39.5256 30.8591 14.2447Z" fill="#005DB8"/>
<path d="M43.5734 16.9251C44.6724 16.4601 45.5459 16.4659 46.2396 16.7186C46.9479 16.9766 47.5958 17.5387 48.1391 18.4115C49.2408 20.1815 49.7696 23.0168 49.4848 26.0348C49.2014 29.0375 48.1277 32.0479 46.2272 34.1743C44.3682 36.2544 41.6732 37.5468 37.9328 37.13C33.9694 36.3273 31.9572 34.9055 31.0975 33.3894C30.2479 31.891 30.3618 30.0058 31.3488 27.8788C33.341 23.5856 38.5887 19.0342 43.5734 16.9251Z" fill="white" stroke="#E4143E" stroke-width="2"/>
<path d="M14.538 29.1287C0.103386 20.9088 -4.94466 45.3746 5.66322 45.2783C16.2711 45.1821 28.6755 38.062 14.538 29.1287Z" fill="#FFCA1E"/>
<path d="M24.7357 44.4984C25.7033 56.2428 41.7728 49.2669 37.5467 43.2833C33.3207 37.2996 24.334 33.0156 24.7357 44.4984Z" fill="#E4143E"/>
</svg>
